<?xml version="1.0" encoding="utf-8"?>
<svg version="1.1" xmlns:xlink="http://www.w3.org/1999/xlink" width="50px" height="54px" xmlns="http://www.w3.org/2000/svg">
  <g transform="matrix(1 0 0 1 -250 -276 )">
    <path d="M 27.2500000175781 9  L 27.2500000175781 5  L 43.5808759785156 5  C 46.9879891035156 4.49999999450684  49.7499999824219 7.2674019078937  49 10.669123996907  L 49 47.8308759975999  C 49.7499999824219 51.2379891217681  46.9825981210938 54  43.5808759785156 54  L 6.41912396875 54  C 3.01201089648437 54  0.250000017578125 51.2325980866131  1 47.8308759975999  L 1 20.2500000082397  L 5 20.2500000082397  L 5 47.4915986910421  C 4.75 48.5780062337456  5.64919191601563 49.5000000186768  6.75840127539063 49  L 43.2415987246094 49  C 44.3280062675781 49.5000000186768  45.25 48.6008082083494  45 47.4915986910421  L 45 11.0084013034647  C 45.25 9.9219938134956  44.3508081894531 9.00000002856445  43.2415987246094 9  L 27.2500000175781 9  Z M 0.94467241796875 8.36487043301639  L 7.65402128125 15.0570504587263  C 8.5805321875 15.980983181157  10.0822971835938 15.980983181157  11.0088081425781 15.0570504587263  L 22.0553275820313 4.03901333251001  C 22.9815574140625 3.11481788742314  22.9815574140625 1.61688230380447  22.0553275820313 0.692949581373792  C 21.1288166757812 -0.230983193791264  19.6270516796875 -0.230983193791264  18.7005407207031 0.692949581373792  L 9.33155516992188 10.0379548583892  L 4.29945927929688 5.01880668188017  C 3.3729483203125 4.09487395944949  1.87118332421875 4.09487395944949  0.94467241796875 5.01880668188017  C 0.0184425332031251 5.94300212696704  0.0184425332031251 7.44093771058571  0.94467241796875 8.36487043301639  Z M 11.5210800390625 42.7500000203247  C 10.2667971484375 42.7500000203247  9.24999998242188 41.7513041924435  9.24999998242188 40.5000000032959  C 9.24999998242188 39.2573594391462  10.247544671875 38.2499999862671  11.5210800390625 38.2499999862671  L 15.9789199960938 38.2499999862671  C 17.2332028339844 38.2499999862671  18.25 39.2486958141483  18.25 40.5000000032959  C 18.25 41.7426405674456  17.2524553632813 42.7500000203247  15.9789199960938 42.7500000203247  L 11.5210800390625 42.7500000203247  Z M 11.5210800390625 31.499999987915  C 10.2667971484375 31.499999987915  9.24999998242188 30.5013042127682  9.24999998242188 29.2500000236206  C 9.24999998242188 28.0073594067365  10.247544671875 27.0000000065918  11.5210800390625 27.0000000065918  L 15.9789199960938 27.0000000065918  C 17.2332028339844 27.0000000065918  18.25 27.9986957817386  18.25 29.2500000236206  C 18.25 30.4926405877704  17.2524553632813 31.499999987915  15.9789199960938 31.499999987915  L 11.5210800390625 31.499999987915  Z M 24.9933177109375 42  C 23.7543676035156 42.7500000203247  22.7499999824219 41.7513041924435  22.7499999824219 40.5000000032959  C 22.7499999824219 39.2573594391462  23.7693316679688 38.2499999862671  24.9933177109375 38  L 38.5066822890625 38  C 39.7456323964844 38.2499999862671  40.7500000175781 39.2486958141483  40.7500000175781 40.5000000032959  C 40.7500000175781 41.7426405674456  39.7306683320313 42.7500000203247  38.5066822890625 42  L 24.9933177109375 42  Z M 24.9933177109375 31  C 23.7543676035156 31.499999987915  22.7499999824219 30.5013042127682  22.7499999824219 29.2500000236206  C 22.7499999824219 28.0073594067365  23.7693316679688 27.0000000065918  24.9933177109375 27  L 38.5066822890625 27  C 39.7456323964844 27.0000000065918  40.7500000175781 27.9986957817386  40.7500000175781 29.2500000236206  C 40.7500000175781 30.4926405877704  39.7306683320313 31.499999987915  38.5066822890625 31  L 24.9933177109375 31  Z M 24.9933177109375 21  C 23.7543676035156 20.2500000082397  22.7499999824219 19.2513041803586  22.7499999824219 17.9999999912109  C 22.7499999824219 16.7573593215924  23.7693316679688 15.7500000269165  24.9933177109375 16  L 38.5066822890625 16  C 39.7456323964844 15.7500000269165  40.7500000175781 16.7486958547977  40.7500000175781 17.9999999912109  C 40.7500000175781 19.2426407135638  39.7306683320313 20.2500000082397  38.5066822890625 21  L 24.9933177109375 21  Z " fill-rule="nonzero" fill="#1abc9c" stroke="none" transform="matrix(1 0 0 1 250 276 )" />
  </g>
</svg>